PathFileType	4	(X/Y/Z)	C:\Users\italobelli\Desktop\GitHub\PTbot_officialCBL\Personal_Results\ABD23_noisy1.trc
DataRate	CameraRate	NumFrames	NumMarkers	Units	OrigDataRate	OrigDataStartFrame	OrigNumFrames
105.444444	105.444444	51	9	m	105.444444	832	950
Frame#	Time		gu		centelbow		EpL		centpxt8		centijc7		ij		ts		aa		ai
			X1	Y1	Z1	X2	Y2	Z2	X3	Y3	Z3	X4	Y4	Z4	X5	Y5	Z5	X6	Y6	Z6	X7	Y7	Z7	X8	Y8	Z8	X9	Y9	Z9

832	7.8809	-0.096191	-0.010207	0.16092	-0.12148	-0.25039	0.18918	-0.12008	-0.24278	0.22047	-0.046816	-0.15316	-0.008669	-0.046816	0.031938	-0.008669	0	0	0	-0.13204	0.024807	0.038514	-0.12912	0.025236	0.15775	-0.14264	-0.088049	0.044467
833	7.8904	-0.096163	-0.010233	0.16093	-0.12134	-0.25035	0.18913	-0.11993	-0.24273	0.22042	-0.046816	-0.15316	-0.008669	-0.046816	0.031938	-0.008669	0	0	0	-0.13206	0.02476	0.038537	-0.12911	0.025183	0.15777	-0.14257	-0.088105	0.044483
834	7.8999	-0.096134	-0.010256	0.16093	-0.12119	-0.25031	0.18909	-0.11978	-0.24269	0.22037	-0.046816	-0.15316	-0.008669	-0.046816	0.031938	-0.008669	0	0	0	-0.13208	0.024714	0.03856	-0.12909	0.025132	0.1578	-0.14251	-0.08816	0.044499
835	7.9094	-0.096104	-0.010278	0.16093	-0.12105	-0.25027	0.18905	-0.11963	-0.24264	0.22033	-0.046816	-0.15316	-0.008669	-0.046816	0.031938	-0.008669	0	0	0	-0.1321	0.024668	0.038583	-0.12908	0.025083	0.15782	-0.14244	-0.088215	0.044516
836	7.9189	-0.096073	-0.010298	0.16093	-0.12092	-0.25023	0.18901	-0.11948	-0.2426	0.22029	-0.046816	-0.15316	-0.008669	-0.046816	0.031938	-0.008669	0	0	0	-0.13212	0.024622	0.038604	-0.12906	0.025037	0.15784	-0.14238	-0.088269	0.044534
837	7.9283	-0.096041	-0.010317	0.16094	-0.12078	-0.25019	0.18897	-0.11934	-0.24256	0.22025	-0.046816	-0.15316	-0.008669	-0.046816	0.031938	-0.008669	0	0	0	-0.13213	0.024576	0.038625	-0.12905	0.024993	0.15786	-0.14232	-0.088322	0.044552
838	7.9378	-0.096006	-0.010333	0.16094	-0.12065	-0.25015	0.18894	-0.1192	-0.24251	0.22022	-0.046816	-0.15316	-0.008669	-0.046816	0.031938	-0.008669	0	0	0	-0.13215	0.024531	0.038645	-0.12903	0.024951	0.15788	-0.14226	-0.088375	0.044571
839	7.9473	-0.095971	-0.010347	0.16094	-0.12052	-0.25011	0.1889	-0.11906	-0.24247	0.22019	-0.046816	-0.15316	-0.008669	-0.046816	0.031938	-0.008669	0	0	0	-0.13217	0.024486	0.038664	-0.12902	0.024913	0.15789	-0.1422	-0.088427	0.044591
840	7.9568	-0.095934	-0.010359	0.16094	-0.12039	-0.25007	0.18888	-0.11892	-0.24243	0.22016	-0.046816	-0.15316	-0.008669	-0.046816	0.031938	-0.008669	0	0	0	-0.13218	0.024442	0.038682	-0.129	0.024877	0.15791	-0.14215	-0.088478	0.044611
841	7.9663	-0.095895	-0.010368	0.16094	-0.12027	-0.25004	0.18885	-0.11879	-0.24238	0.22013	-0.046816	-0.15316	-0.008669	-0.046816	0.031938	-0.008669	0	0	0	-0.1322	0.024398	0.038699	-0.12898	0.024844	0.15792	-0.14209	-0.088528	0.044633
842	7.9758	-0.095854	-0.010376	0.16094	-0.12014	-0.25	0.18883	-0.11866	-0.24234	0.22011	-0.046816	-0.15316	-0.008669	-0.046816	0.031938	-0.008669	0	0	0	-0.13221	0.024354	0.038715	-0.12896	0.024814	0.15794	-0.14204	-0.088577	0.044655
843	7.9852	-0.095812	-0.010381	0.16094	-0.12003	-0.24996	0.18881	-0.11854	-0.2423	0.22009	-0.046816	-0.15316	-0.008669	-0.046816	0.031938	-0.008669	0	0	0	-0.13222	0.024311	0.03873	-0.12894	0.024788	0.15795	-0.14199	-0.088626	0.044678
844	7.9947	-0.095767	-0.010384	0.16094	-0.11991	-0.24993	0.1888	-0.11842	-0.24226	0.22008	-0.046816	-0.15316	-0.008669	-0.046816	0.031938	-0.008669	0	0	0	-0.13223	0.024269	0.038744	-0.12892	0.024764	0.15796	-0.14195	-0.088673	0.044702
845	8.0042	-0.095721	-0.010384	0.16094	-0.1198	-0.24989	0.18879	-0.1183	-0.24222	0.22007	-0.046816	-0.15316	-0.008669	-0.046816	0.031938	-0.008669	0	0	0	-0.13225	0.024226	0.038757	-0.1289	0.024744	0.15797	-0.1419	-0.08872	0.044727
846	8.0137	-0.095672	-0.010383	0.16094	-0.1197	-0.24986	0.18879	-0.11818	-0.24218	0.22007	-0.046816	-0.15316	-0.008669	-0.046816	0.031938	-0.008669	0	0	0	-0.13226	0.024184	0.038768	-0.12888	0.024727	0.15798	-0.14186	-0.088765	0.044753
847	8.0232	-0.095619	-0.01038	0.16094	-0.11959	-0.24983	0.1888	-0.11808	-0.24214	0.22008	-0.046816	-0.15316	-0.008669	-0.046816	0.031938	-0.008669	0	0	0	-0.13227	0.024143	0.038778	-0.12885	0.024712	0.15799	-0.14182	-0.08881	0.044781
848	8.0327	-0.095562	-0.010377	0.16093	-0.1195	-0.24979	0.18883	-0.11797	-0.2421	0.2201	-0.046816	-0.15316	-0.008669	-0.046816	0.031938	-0.008669	0	0	0	-0.13228	0.024102	0.038787	-0.12882	0.024699	0.158	-0.14178	-0.088854	0.04481
849	8.0421	-0.095503	-0.010372	0.16093	-0.11941	-0.24975	0.18886	-0.11787	-0.24205	0.22013	-0.046816	-0.15316	-0.008669	-0.046816	0.031938	-0.008669	0	0	0	-0.13229	0.024062	0.038795	-0.12879	0.024689	0.158	-0.14174	-0.088897	0.044839
850	8.0516	-0.095441	-0.010366	0.16093	-0.11932	-0.24972	0.18891	-0.11778	-0.24201	0.22018	-0.046816	-0.15316	-0.008669	-0.046816	0.031938	-0.008669	0	0	0	-0.1323	0.024022	0.038801	-0.12876	0.02468	0.15801	-0.1417	-0.08894	0.04487
851	8.0611	-0.095375	-0.010359	0.16092	-0.11924	-0.24968	0.18896	-0.11769	-0.24196	0.22023	-0.046816	-0.15316	-0.008669	-0.046816	0.031938	-0.008669	0	0	0	-0.13231	0.023983	0.038807	-0.12872	0.024673	0.15801	-0.14167	-0.088981	0.044902
852	8.0706	-0.095307	-0.010351	0.16092	-0.11916	-0.24965	0.18903	-0.1176	-0.24192	0.22029	-0.046816	-0.15316	-0.008669	-0.046816	0.031938	-0.008669	0	0	0	-0.13232	0.023944	0.038811	-0.12868	0.024669	0.15801	-0.14163	-0.089022	0.044935
853	8.0801	-0.095236	-0.010342	0.16092	-0.11908	-0.24961	0.1891	-0.11752	-0.24187	0.22036	-0.046816	-0.15316	-0.008669	-0.046816	0.031938	-0.008669	0	0	0	-0.13233	0.023905	0.038814	-0.12864	0.024666	0.15801	-0.1416	-0.089063	0.044969
854	8.0896	-0.095163	-0.010332	0.16091	-0.11901	-0.24957	0.18918	-0.11744	-0.24182	0.22044	-0.046816	-0.15316	-0.008669	-0.046816	0.031938	-0.008669	0	0	0	-0.13234	0.023867	0.038817	-0.1286	0.024665	0.15801	-0.14157	-0.089102	0.045004
855	8.0991	-0.095087	-0.010321	0.16091	-0.11895	-0.24953	0.18927	-0.11736	-0.24178	0.22053	-0.046816	-0.15316	-0.008669	-0.046816	0.031938	-0.008669	0	0	0	-0.13235	0.023829	0.038818	-0.12856	0.024665	0.15801	-0.14153	-0.089141	0.04504
856	8.1085	-0.095008	-0.010309	0.1609	-0.11888	-0.2495	0.18937	-0.11729	-0.24173	0.22063	-0.046816	-0.15316	-0.008669	-0.046816	0.031938	-0.008669	0	0	0	-0.13236	0.023792	0.038818	-0.12851	0.024667	0.15801	-0.1415	-0.08918	0.045077
857	8.118	-0.094928	-0.010297	0.16089	-0.11882	-0.24946	0.18948	-0.11722	-0.24168	0.22073	-0.046816	-0.15316	-0.008669	-0.046816	0.031938	-0.008669	0	0	0	-0.13237	0.023755	0.038818	-0.12847	0.024671	0.158	-0.14147	-0.089218	0.045115
858	8.1275	-0.094845	-0.010284	0.16089	-0.11876	-0.24942	0.18959	-0.11715	-0.24163	0.22084	-0.046816	-0.15316	-0.008669	-0.046816	0.031938	-0.008669	0	0	0	-0.13238	0.023718	0.038817	-0.12842	0.024676	0.158	-0.14145	-0.089255	0.045153
859	8.137	-0.09476	-0.01027	0.16088	-0.1187	-0.24938	0.18971	-0.11709	-0.24158	0.22096	-0.046816	-0.15316	-0.008669	-0.046816	0.031938	-0.008669	0	0	0	-0.13239	0.023681	0.038815	-0.12837	0.024682	0.158	-0.14142	-0.089292	0.045192
860	8.1465	-0.094674	-0.010256	0.16087	-0.11865	-0.24934	0.18984	-0.11703	-0.24153	0.22108	-0.046816	-0.15316	-0.008669	-0.046816	0.031938	-0.008669	0	0	0	-0.1324	0.023645	0.038813	-0.12831	0.024689	0.15799	-0.14139	-0.089329	0.045232
861	8.156	-0.094585	-0.010241	0.16087	-0.1186	-0.24931	0.18997	-0.11697	-0.24147	0.22121	-0.046816	-0.15316	-0.008669	-0.046816	0.031938	-0.008669	0	0	0	-0.13241	0.023609	0.03881	-0.12826	0.024698	0.15798	-0.14137	-0.089365	0.045273
862	8.1654	-0.094495	-0.010226	0.16086	-0.11855	-0.24927	0.19011	-0.11691	-0.24142	0.22134	-0.046816	-0.15316	-0.008669	-0.046816	0.031938	-0.008669	0	0	0	-0.13242	0.023573	0.038806	-0.1282	0.024707	0.15798	-0.14134	-0.0894	0.045314
863	8.1749	-0.094403	-0.01021	0.16085	-0.1185	-0.24923	0.19025	-0.11685	-0.24137	0.22148	-0.046816	-0.15316	-0.008669	-0.046816	0.031938	-0.008669	0	0	0	-0.13243	0.023537	0.038802	-0.12815	0.024717	0.15797	-0.14132	-0.089436	0.045356
864	8.1844	-0.09431	-0.010194	0.16085	-0.11845	-0.24919	0.1904	-0.11679	-0.24132	0.22162	-0.046816	-0.15316	-0.008669	-0.046816	0.031938	-0.008669	0	0	0	-0.13243	0.023502	0.038797	-0.12809	0.024729	0.15796	-0.14129	-0.089471	0.045398
865	8.1939	-0.094216	-0.010177	0.16084	-0.11841	-0.24915	0.19055	-0.11674	-0.24127	0.22177	-0.046816	-0.15316	-0.008669	-0.046816	0.031938	-0.008669	0	0	0	-0.13244	0.023467	0.038792	-0.12803	0.024741	0.15795	-0.14127	-0.089505	0.045441
866	8.2034	-0.09412	-0.01016	0.16083	-0.11836	-0.24911	0.1907	-0.11669	-0.24122	0.22192	-0.046816	-0.15316	-0.008669	-0.046816	0.031938	-0.008669	0	0	0	-0.13245	0.023432	0.038787	-0.12797	0.024753	0.15794	-0.14125	-0.08954	0.045485
867	8.2129	-0.094023	-0.010143	0.16082	-0.11832	-0.24908	0.19086	-0.11664	-0.24117	0.22207	-0.046816	-0.15316	-0.008669	-0.046816	0.031938	-0.008669	0	0	0	-0.13246	0.023397	0.038781	-0.12791	0.024766	0.15793	-0.14122	-0.089574	0.045529
868	8.2223	-0.093925	-0.010126	0.16081	-0.11828	-0.24904	0.19102	-0.11658	-0.24111	0.22222	-0.046816	-0.15316	-0.008669	-0.046816	0.031938	-0.008669	0	0	0	-0.13247	0.023362	0.038775	-0.12785	0.02478	0.15793	-0.1412	-0.089608	0.045573
869	8.2318	-0.093827	-0.010108	0.1608	-0.11824	-0.249	0.19118	-0.11653	-0.24106	0.22238	-0.046816	-0.15316	-0.008669	-0.046816	0.031938	-0.008669	0	0	0	-0.13247	0.023327	0.038769	-0.12779	0.024794	0.15792	-0.14118	-0.089642	0.045618
870	8.2413	-0.093727	-0.010091	0.1608	-0.1182	-0.24896	0.19134	-0.11648	-0.24101	0.22254	-0.046816	-0.15316	-0.008669	-0.046816	0.031938	-0.008669	0	0	0	-0.13248	0.023293	0.038762	-0.12773	0.024808	0.15791	-0.14116	-0.089675	0.045663
871	8.2508	-0.093627	-0.010073	0.16079	-0.11816	-0.24893	0.19151	-0.11643	-0.24096	0.2227	-0.046816	-0.15316	-0.008669	-0.046816	0.031938	-0.008669	0	0	0	-0.13249	0.023258	0.038756	-0.12766	0.024823	0.1579	-0.14113	-0.089709	0.045709
872	8.2603	-0.093526	-0.010056	0.16078	-0.11812	-0.24889	0.19167	-0.11638	-0.24091	0.22286	-0.046816	-0.15316	-0.008669	-0.046816	0.031938	-0.008669	0	0	0	-0.1325	0.023223	0.038749	-0.1276	0.024838	0.15789	-0.14111	-0.089742	0.045755
873	8.2698	-0.093425	-0.010039	0.16077	-0.11807	-0.24885	0.19184	-0.11633	-0.24086	0.22303	-0.046816	-0.15316	-0.008669	-0.046816	0.031938	-0.008669	0	0	0	-0.1325	0.023189	0.038742	-0.12753	0.024852	0.15788	-0.14109	-0.089775	0.045801
874	8.2792	-0.093324	-0.010021	0.16076	-0.11803	-0.24882	0.19201	-0.11628	-0.24081	0.22319	-0.046816	-0.15316	-0.008669	-0.046816	0.031938	-0.008669	0	0	0	-0.13251	0.023154	0.038736	-0.12747	0.024867	0.15787	-0.14107	-0.089809	0.045847
875	8.2887	-0.093222	-0.010004	0.16075	-0.11799	-0.24878	0.19218	-0.11623	-0.24076	0.22335	-0.046816	-0.15316	-0.008669	-0.046816	0.031938	-0.008669	0	0	0	-0.13252	0.02312	0.038729	-0.1274	0.024882	0.15786	-0.14105	-0.089842	0.045893
876	8.2982	-0.093121	-0.0099875	0.16075	-0.11795	-0.24874	0.19234	-0.11618	-0.24071	0.22351	-0.046816	-0.15316	-0.008669	-0.046816	0.031938	-0.008669	0	0	0	-0.13252	0.023085	0.038723	-0.12734	0.024896	0.15785	-0.14102	-0.089875	0.04594
877	8.3077	-0.093019	-0.009971	0.16074	-0.1179	-0.24871	0.19251	-0.11612	-0.24066	0.22368	-0.046816	-0.15316	-0.008669	-0.046816	0.031938	-0.008669	0	0	0	-0.13253	0.023051	0.038716	-0.12727	0.02491	0.15784	-0.141	-0.089908	0.045986
878	8.3172	-0.092918	-0.0099548	0.16073	-0.11786	-0.24867	0.19267	-0.11607	-0.24061	0.22383	-0.046816	-0.15316	-0.008669	-0.046816	0.031938	-0.008669	0	0	0	-0.13254	0.023016	0.03871	-0.12721	0.024923	0.15783	-0.14098	-0.089942	0.046033
879	8.3267	-0.092817	-0.0099391	0.16072	-0.11781	-0.24864	0.19283	-0.11601	-0.24056	0.22399	-0.046816	-0.15316	-0.008669	-0.046816	0.031938	-0.008669	0	0	0	-0.13254	0.022982	0.038704	-0.12714	0.024936	0.15782	-0.14095	-0.089975	0.046079
880	8.3361	-0.092716	-0.0099238	0.16071	-0.11776	-0.24861	0.19299	-0.11595	-0.24052	0.22415	-0.046816	-0.15316	-0.008669	-0.046816	0.031938	-0.008669	0	0	0	-0.13255	0.022947	0.038699	-0.12708	0.024949	0.15781	-0.14093	-0.090009	0.046126
881	8.3456	-0.092615	-0.009909	0.16071	-0.11771	-0.24857	0.19315	-0.11589	-0.24047	0.2243	-0.046816	-0.15316	-0.008669	-0.046816	0.031938	-0.008669	0	0	0	-0.13255	0.022912	0.038694	-0.12701	0.02496	0.1578	-0.14091	-0.090043	0.046173
882	8.3551	-0.092516	-0.0098947	0.1607	-0.11766	-0.24854	0.1933	-0.11583	-0.24043	0.22445	-0.046816	-0.15316	-0.008669	-0.046816	0.031938	-0.008669	0	0	0	-0.13256	0.022877	0.038689	-0.12695	0.024971	0.15779	-0.14088	-0.090077	0.046219
